# xmcd
#
# Track frame offsets:
#	150
#	12875
#	25005
#	37255
#	50805
#	61862
#	74817
#	88017
#	98790
#	111640
#	123847
#	135960
#	148600
#	162165
#	175110
#	186227
#	198132
#	208352
#	219297
#	229885
#
# Disc length: 3202 seconds
#
# Revision: 0
# Processed by: cddbd v1.4PL0 Copyright (c) Steve Scherf et al.
# Submitted via: dBpowerAMP V4.0
#
DISCID=270c8014
DTITLE=Various Artist - Hillbilly Boogie
DYEAR=1900
DGENRE=General Country
TTITLE0=Smoke! Smoke! Smoke! (That Cigarette)
TTITLE1=Three Way Boogie (Instrumental)
TTITLE2=Take It Away, Leon
TTITLE3=New Broom Boogie
TTITLE4=Hamburger Hop
TTITLE5=Drinking All My Troubles Away
TTITLE6=Georgia Boogie
TTITLE7=Cowboy Stomp
TTITLE8=Mean Mama Boogie
TTITLE9=Yodeling Polka
TTITLE10=Saturday Night Boogie
TTITLE11=Rootie Tootie
TTITLE12=Blue Guitar Stomp
TTITLE13=Squeeze Box Polka
TTITLE14=Beer Bottle Mama
TTITLE15=Fiddlin' Boogie
TTITLE16=My Baby's Just Like Money
TTITLE17=Get Your Kicks (From The Country Hicks)
TTITLE18=Give Me A Red Hot Mama And An Ice Cold Beer
TTITLE19=Salty Boogie
EXTD=
EXTT0=
EXTT1=
EXTT2=
EXTT3=
EXTT4=
EXTT5=
EXTT6=
EXTT7=
EXTT8=
EXTT9=
EXTT10=
EXTT11=
EXTT12=
EXTT13=
EXTT14=
EXTT15=
EXTT16=
EXTT17=
EXTT18=
EXTT19=
PLAYORDER=
